<svg width="665" height="114" viewBox="0 0 665 114" fill="none" xmlns="http://www.w3.org/2000/svg">
<mask id="path-1-outside-1_3_2" maskUnits="userSpaceOnUse" x="0.23999" y="0.0480003" width="664" height="114" fill="black">
<rect fill="white" x="0.23999" y="0.0480003" width="664" height="114"/>
<path d="M5.23999 7.208C8.88799 6.53599 13.064 6.00799 17.768 5.62399C22.568 5.24 26.936 5.048 30.872 5.048C35.288 5.048 39.464 5.528 43.4 6.488C47.432 7.448 50.936 9.032 53.912 11.24C56.984 13.448 59.432 16.328 61.256 19.88C63.08 23.432 63.992 27.752 63.992 32.84C63.992 40.712 61.832 47.096 57.512 51.992C53.192 56.888 47.72 60.152 41.096 61.784L48.008 67.112L73.064 107H59.096L31.304 63.512L17.192 61.352V107H5.23999V7.208ZM31.16 15.416C29.912 15.416 28.616 15.416 27.272 15.416C25.928 15.416 24.632 15.464 23.384 15.56C22.136 15.656 20.936 15.752 19.784 15.848C18.728 15.944 17.864 16.088 17.192 16.28V53.432H28.424C35.048 53.432 40.52 51.8 44.84 48.536C49.16 45.272 51.32 40.184 51.32 33.272C51.32 28.088 49.544 23.816 45.992 20.456C42.44 17.096 37.496 15.416 31.16 15.416Z"/>
<path d="M135.398 101.24C132.518 103.544 128.87 105.368 124.454 106.712C120.134 108.056 115.526 108.728 110.63 108.728C105.158 108.728 100.406 107.864 96.374 106.136C92.342 104.312 89.03 101.768 86.438 98.504C83.846 95.144 81.926 91.16 80.678 86.552C79.43 81.944 78.806 76.76 78.806 71C78.806 58.712 81.542 49.352 87.014 42.92C92.486 36.488 100.31 33.272 110.486 33.272C113.75 33.272 117.014 33.656 120.278 34.424C123.542 35.096 126.47 36.44 129.062 38.456C131.654 40.472 133.766 43.352 135.398 47.096C137.03 50.744 137.846 55.592 137.846 61.64C137.846 64.808 137.558 68.312 136.982 72.152H90.758C90.758 76.376 91.19 80.12 92.054 83.384C92.918 86.648 94.262 89.432 96.086 91.736C97.91 93.944 100.262 95.672 103.142 96.92C106.118 98.072 109.718 98.648 113.942 98.648C117.206 98.648 120.47 98.072 123.734 96.92C126.998 95.768 129.446 94.424 131.078 92.888L135.398 101.24ZM110.63 43.352C104.966 43.352 100.406 44.84 96.95 47.816C93.59 50.792 91.574 55.88 90.902 63.08H126.614C126.614 55.784 125.222 50.696 122.438 47.816C119.654 44.84 115.718 43.352 110.63 43.352Z"/>
<path d="M187.643 87.416C187.643 84.536 186.779 82.28 185.051 80.648C183.323 79.016 181.163 77.672 178.571 76.616C176.075 75.464 173.291 74.408 170.219 73.448C167.243 72.392 164.459 71.096 161.867 69.56C159.371 67.928 157.259 65.864 155.531 63.368C153.803 60.872 152.939 57.512 152.939 53.288C152.939 46.376 154.907 41.336 158.843 38.168C162.779 34.904 168.251 33.272 175.259 33.272C180.443 33.272 184.763 33.752 188.219 34.712C191.771 35.576 194.843 36.632 197.435 37.88L194.699 47.384C192.491 46.328 189.803 45.416 186.635 44.648C183.563 43.784 180.251 43.352 176.699 43.352C172.475 43.352 169.355 44.072 167.339 45.512C165.419 46.952 164.459 49.448 164.459 53C164.459 55.496 165.323 57.464 167.051 58.904C168.779 60.248 170.891 61.496 173.387 62.648C175.979 63.704 178.763 64.76 181.739 65.816C184.811 66.872 187.595 68.264 190.091 69.992C192.683 71.72 194.843 73.928 196.571 76.616C198.299 79.208 199.163 82.664 199.163 86.984C199.163 90.056 198.635 92.936 197.579 95.624C196.619 98.312 195.083 100.616 192.971 102.536C190.859 104.456 188.219 105.944 185.051 107C181.979 108.152 178.331 108.728 174.107 108.728C168.635 108.728 163.979 108.2 160.139 107.144C156.299 106.088 153.083 104.84 150.491 103.4L153.947 93.608C156.155 94.856 159.035 96.008 162.587 97.064C166.139 98.12 169.739 98.648 173.387 98.648C177.515 98.648 180.923 97.832 183.611 96.2C186.299 94.568 187.643 91.64 187.643 87.416Z"/>
<path d="M226.94 35V76.04C226.94 79.784 227.132 83.096 227.516 85.976C227.996 88.76 228.764 91.112 229.82 93.032C230.876 94.856 232.316 96.248 234.14 97.208C235.964 98.168 238.268 98.648 241.052 98.648C243.644 98.648 245.948 98.264 247.964 97.496C249.98 96.632 251.756 95.48 253.292 94.04C254.924 92.6 256.316 90.968 257.468 89.144C258.716 87.224 259.724 85.208 260.492 83.096V35H272.012V86.552C272.012 90.008 272.108 93.608 272.3 97.352C272.588 101 273.02 104.216 273.596 107H265.676L262.796 95.624H262.076C259.868 99.368 256.892 102.488 253.148 104.984C249.404 107.48 244.652 108.728 238.892 108.728C235.052 108.728 231.644 108.248 228.668 107.288C225.788 106.424 223.34 104.84 221.324 102.536C219.404 100.232 217.916 97.16 216.86 93.32C215.9 89.384 215.42 84.44 215.42 78.488V35H226.94Z"/>
<path d="M336.389 107V66.248C336.389 62.408 336.197 59.096 335.813 56.312C335.525 53.432 334.901 51.032 333.941 49.112C332.981 47.192 331.589 45.752 329.765 44.792C328.037 43.832 325.733 43.352 322.853 43.352C318.437 43.352 314.741 44.696 311.765 47.384C308.885 50.072 306.869 53.432 305.717 57.464V107H294.197V35H302.261L304.421 43.784H304.997C307.589 40.712 310.565 38.216 313.925 36.296C317.381 34.28 321.845 33.272 327.317 33.272C331.925 33.272 335.669 34.184 338.549 36.008C341.525 37.736 343.829 40.808 345.461 45.224C347.669 41.48 350.693 38.552 354.533 36.44C358.469 34.328 362.885 33.272 367.781 33.272C371.813 33.272 375.221 33.752 378.005 34.712C380.789 35.576 383.093 37.16 384.917 39.464C386.741 41.768 388.037 44.888 388.805 48.824C389.669 52.76 390.101 57.752 390.101 63.8V107H378.581V63.656C378.581 60.2 378.389 57.224 378.005 54.728C377.717 52.136 377.045 50.024 375.989 48.392C375.029 46.664 373.637 45.416 371.813 44.648C370.085 43.784 367.781 43.352 364.901 43.352C360.101 43.352 356.357 44.696 353.669 47.384C350.981 50.072 349.061 53.912 347.909 58.904V107H336.389Z"/>
<path d="M463.617 101.24C460.737 103.544 457.089 105.368 452.673 106.712C448.353 108.056 443.745 108.728 438.849 108.728C433.377 108.728 428.625 107.864 424.593 106.136C420.561 104.312 417.249 101.768 414.657 98.504C412.065 95.144 410.145 91.16 408.897 86.552C407.649 81.944 407.025 76.76 407.025 71C407.025 58.712 409.761 49.352 415.233 42.92C420.705 36.488 428.529 33.272 438.705 33.272C441.969 33.272 445.233 33.656 448.497 34.424C451.761 35.096 454.689 36.44 457.281 38.456C459.873 40.472 461.985 43.352 463.617 47.096C465.249 50.744 466.065 55.592 466.065 61.64C466.065 64.808 465.777 68.312 465.201 72.152H418.977C418.977 76.376 419.409 80.12 420.273 83.384C421.137 86.648 422.481 89.432 424.305 91.736C426.129 93.944 428.481 95.672 431.361 96.92C434.337 98.072 437.937 98.648 442.161 98.648C445.425 98.648 448.689 98.072 451.953 96.92C455.217 95.768 457.665 94.424 459.297 92.888L463.617 101.24ZM438.849 43.352C433.185 43.352 428.625 44.84 425.169 47.816C421.809 50.792 419.793 55.88 419.121 63.08H454.833C454.833 55.784 453.441 50.696 450.657 47.816C447.873 44.84 443.937 43.352 438.849 43.352Z"/>
<path d="M484.182 6.19999H495.702V42.056H496.278C498.486 39.272 501.27 37.112 504.63 35.576C508.086 34.04 511.83 33.272 515.862 33.272C525.174 33.272 532.134 36.248 536.742 42.2C541.446 48.152 543.798 57.368 543.798 69.848C543.798 82.424 540.726 91.976 534.582 98.504C528.438 105.032 519.798 108.296 508.662 108.296C503.286 108.296 498.39 107.72 493.974 106.568C489.654 105.416 486.39 104.168 484.182 102.824V6.19999ZM513.846 43.352C509.046 43.352 505.158 44.696 502.182 47.384C499.206 50.072 497.046 53.864 495.702 58.76V95.048C497.526 96.104 499.734 96.92 502.326 97.496C504.918 97.976 507.606 98.216 510.39 98.216C516.918 98.216 522.102 95.912 525.942 91.304C529.878 86.696 531.846 79.496 531.846 69.704C531.846 65.96 531.51 62.456 530.838 59.192C530.166 55.928 529.11 53.144 527.67 50.84C526.23 48.536 524.358 46.712 522.054 45.368C519.846 44.024 517.11 43.352 513.846 43.352Z"/>
<path d="M574.763 89.288C574.763 92.648 575.339 95.048 576.491 96.488C577.643 97.928 579.275 98.648 581.387 98.648C582.635 98.648 583.979 98.552 585.419 98.36C586.859 98.168 588.491 97.736 590.315 97.064L591.611 106.136C590.075 106.904 587.915 107.528 585.131 108.008C582.443 108.488 580.091 108.728 578.075 108.728C573.755 108.728 570.203 107.528 567.419 105.128C564.635 102.632 563.243 98.456 563.243 92.6V6.19999H574.763V89.288Z"/>
<path d="M656.554 101.24C653.674 103.544 650.026 105.368 645.61 106.712C641.29 108.056 636.682 108.728 631.786 108.728C626.314 108.728 621.562 107.864 617.53 106.136C613.498 104.312 610.186 101.768 607.594 98.504C605.002 95.144 603.082 91.16 601.834 86.552C600.586 81.944 599.962 76.76 599.962 71C599.962 58.712 602.698 49.352 608.17 42.92C613.642 36.488 621.466 33.272 631.642 33.272C634.906 33.272 638.17 33.656 641.434 34.424C644.698 35.096 647.626 36.44 650.218 38.456C652.81 40.472 654.922 43.352 656.554 47.096C658.186 50.744 659.002 55.592 659.002 61.64C659.002 64.808 658.714 68.312 658.138 72.152H611.914C611.914 76.376 612.346 80.12 613.21 83.384C614.074 86.648 615.418 89.432 617.242 91.736C619.066 93.944 621.418 95.672 624.298 96.92C627.274 98.072 630.874 98.648 635.098 98.648C638.362 98.648 641.626 98.072 644.89 96.92C648.154 95.768 650.602 94.424 652.234 92.888L656.554 101.24ZM631.786 43.352C626.122 43.352 621.562 44.84 618.106 47.816C614.746 50.792 612.73 55.88 612.058 63.08H647.77C647.77 55.784 646.378 50.696 643.594 47.816C640.81 44.84 636.874 43.352 631.786 43.352Z"/>
</mask>
<path d="M5.23999 7.208C8.88799 6.53599 13.064 6.00799 17.768 5.62399C22.568 5.24 26.936 5.048 30.872 5.048C35.288 5.048 39.464 5.528 43.4 6.488C47.432 7.448 50.936 9.032 53.912 11.24C56.984 13.448 59.432 16.328 61.256 19.88C63.08 23.432 63.992 27.752 63.992 32.84C63.992 40.712 61.832 47.096 57.512 51.992C53.192 56.888 47.72 60.152 41.096 61.784L48.008 67.112L73.064 107H59.096L31.304 63.512L17.192 61.352V107H5.23999V7.208ZM31.16 15.416C29.912 15.416 28.616 15.416 27.272 15.416C25.928 15.416 24.632 15.464 23.384 15.56C22.136 15.656 20.936 15.752 19.784 15.848C18.728 15.944 17.864 16.088 17.192 16.28V53.432H28.424C35.048 53.432 40.52 51.8 44.84 48.536C49.16 45.272 51.32 40.184 51.32 33.272C51.32 28.088 49.544 23.816 45.992 20.456C42.44 17.096 37.496 15.416 31.16 15.416Z" stroke="white" stroke-width="10" mask="url(#path-1-outside-1_3_2)"/>
<path d="M135.398 101.24C132.518 103.544 128.87 105.368 124.454 106.712C120.134 108.056 115.526 108.728 110.63 108.728C105.158 108.728 100.406 107.864 96.374 106.136C92.342 104.312 89.03 101.768 86.438 98.504C83.846 95.144 81.926 91.16 80.678 86.552C79.43 81.944 78.806 76.76 78.806 71C78.806 58.712 81.542 49.352 87.014 42.92C92.486 36.488 100.31 33.272 110.486 33.272C113.75 33.272 117.014 33.656 120.278 34.424C123.542 35.096 126.47 36.44 129.062 38.456C131.654 40.472 133.766 43.352 135.398 47.096C137.03 50.744 137.846 55.592 137.846 61.64C137.846 64.808 137.558 68.312 136.982 72.152H90.758C90.758 76.376 91.19 80.12 92.054 83.384C92.918 86.648 94.262 89.432 96.086 91.736C97.91 93.944 100.262 95.672 103.142 96.92C106.118 98.072 109.718 98.648 113.942 98.648C117.206 98.648 120.47 98.072 123.734 96.92C126.998 95.768 129.446 94.424 131.078 92.888L135.398 101.24ZM110.63 43.352C104.966 43.352 100.406 44.84 96.95 47.816C93.59 50.792 91.574 55.88 90.902 63.08H126.614C126.614 55.784 125.222 50.696 122.438 47.816C119.654 44.84 115.718 43.352 110.63 43.352Z" stroke="white" stroke-width="10" mask="url(#path-1-outside-1_3_2)"/>
<path d="M187.643 87.416C187.643 84.536 186.779 82.28 185.051 80.648C183.323 79.016 181.163 77.672 178.571 76.616C176.075 75.464 173.291 74.408 170.219 73.448C167.243 72.392 164.459 71.096 161.867 69.56C159.371 67.928 157.259 65.864 155.531 63.368C153.803 60.872 152.939 57.512 152.939 53.288C152.939 46.376 154.907 41.336 158.843 38.168C162.779 34.904 168.251 33.272 175.259 33.272C180.443 33.272 184.763 33.752 188.219 34.712C191.771 35.576 194.843 36.632 197.435 37.88L194.699 47.384C192.491 46.328 189.803 45.416 186.635 44.648C183.563 43.784 180.251 43.352 176.699 43.352C172.475 43.352 169.355 44.072 167.339 45.512C165.419 46.952 164.459 49.448 164.459 53C164.459 55.496 165.323 57.464 167.051 58.904C168.779 60.248 170.891 61.496 173.387 62.648C175.979 63.704 178.763 64.76 181.739 65.816C184.811 66.872 187.595 68.264 190.091 69.992C192.683 71.72 194.843 73.928 196.571 76.616C198.299 79.208 199.163 82.664 199.163 86.984C199.163 90.056 198.635 92.936 197.579 95.624C196.619 98.312 195.083 100.616 192.971 102.536C190.859 104.456 188.219 105.944 185.051 107C181.979 108.152 178.331 108.728 174.107 108.728C168.635 108.728 163.979 108.2 160.139 107.144C156.299 106.088 153.083 104.84 150.491 103.4L153.947 93.608C156.155 94.856 159.035 96.008 162.587 97.064C166.139 98.12 169.739 98.648 173.387 98.648C177.515 98.648 180.923 97.832 183.611 96.2C186.299 94.568 187.643 91.64 187.643 87.416Z" stroke="white" stroke-width="10" mask="url(#path-1-outside-1_3_2)"/>
<path d="M226.94 35V76.04C226.94 79.784 227.132 83.096 227.516 85.976C227.996 88.76 228.764 91.112 229.82 93.032C230.876 94.856 232.316 96.248 234.14 97.208C235.964 98.168 238.268 98.648 241.052 98.648C243.644 98.648 245.948 98.264 247.964 97.496C249.98 96.632 251.756 95.48 253.292 94.04C254.924 92.6 256.316 90.968 257.468 89.144C258.716 87.224 259.724 85.208 260.492 83.096V35H272.012V86.552C272.012 90.008 272.108 93.608 272.3 97.352C272.588 101 273.02 104.216 273.596 107H265.676L262.796 95.624H262.076C259.868 99.368 256.892 102.488 253.148 104.984C249.404 107.48 244.652 108.728 238.892 108.728C235.052 108.728 231.644 108.248 228.668 107.288C225.788 106.424 223.34 104.84 221.324 102.536C219.404 100.232 217.916 97.16 216.86 93.32C215.9 89.384 215.42 84.44 215.42 78.488V35H226.94Z" stroke="white" stroke-width="10" mask="url(#path-1-outside-1_3_2)"/>
<path d="M336.389 107V66.248C336.389 62.408 336.197 59.096 335.813 56.312C335.525 53.432 334.901 51.032 333.941 49.112C332.981 47.192 331.589 45.752 329.765 44.792C328.037 43.832 325.733 43.352 322.853 43.352C318.437 43.352 314.741 44.696 311.765 47.384C308.885 50.072 306.869 53.432 305.717 57.464V107H294.197V35H302.261L304.421 43.784H304.997C307.589 40.712 310.565 38.216 313.925 36.296C317.381 34.28 321.845 33.272 327.317 33.272C331.925 33.272 335.669 34.184 338.549 36.008C341.525 37.736 343.829 40.808 345.461 45.224C347.669 41.48 350.693 38.552 354.533 36.44C358.469 34.328 362.885 33.272 367.781 33.272C371.813 33.272 375.221 33.752 378.005 34.712C380.789 35.576 383.093 37.16 384.917 39.464C386.741 41.768 388.037 44.888 388.805 48.824C389.669 52.76 390.101 57.752 390.101 63.8V107H378.581V63.656C378.581 60.2 378.389 57.224 378.005 54.728C377.717 52.136 377.045 50.024 375.989 48.392C375.029 46.664 373.637 45.416 371.813 44.648C370.085 43.784 367.781 43.352 364.901 43.352C360.101 43.352 356.357 44.696 353.669 47.384C350.981 50.072 349.061 53.912 347.909 58.904V107H336.389Z" stroke="white" stroke-width="10" mask="url(#path-1-outside-1_3_2)"/>
<path d="M463.617 101.24C460.737 103.544 457.089 105.368 452.673 106.712C448.353 108.056 443.745 108.728 438.849 108.728C433.377 108.728 428.625 107.864 424.593 106.136C420.561 104.312 417.249 101.768 414.657 98.504C412.065 95.144 410.145 91.16 408.897 86.552C407.649 81.944 407.025 76.76 407.025 71C407.025 58.712 409.761 49.352 415.233 42.92C420.705 36.488 428.529 33.272 438.705 33.272C441.969 33.272 445.233 33.656 448.497 34.424C451.761 35.096 454.689 36.44 457.281 38.456C459.873 40.472 461.985 43.352 463.617 47.096C465.249 50.744 466.065 55.592 466.065 61.64C466.065 64.808 465.777 68.312 465.201 72.152H418.977C418.977 76.376 419.409 80.12 420.273 83.384C421.137 86.648 422.481 89.432 424.305 91.736C426.129 93.944 428.481 95.672 431.361 96.92C434.337 98.072 437.937 98.648 442.161 98.648C445.425 98.648 448.689 98.072 451.953 96.92C455.217 95.768 457.665 94.424 459.297 92.888L463.617 101.24ZM438.849 43.352C433.185 43.352 428.625 44.84 425.169 47.816C421.809 50.792 419.793 55.88 419.121 63.08H454.833C454.833 55.784 453.441 50.696 450.657 47.816C447.873 44.84 443.937 43.352 438.849 43.352Z" stroke="white" stroke-width="10" mask="url(#path-1-outside-1_3_2)"/>
<path d="M484.182 6.19999H495.702V42.056H496.278C498.486 39.272 501.27 37.112 504.63 35.576C508.086 34.04 511.83 33.272 515.862 33.272C525.174 33.272 532.134 36.248 536.742 42.2C541.446 48.152 543.798 57.368 543.798 69.848C543.798 82.424 540.726 91.976 534.582 98.504C528.438 105.032 519.798 108.296 508.662 108.296C503.286 108.296 498.39 107.72 493.974 106.568C489.654 105.416 486.39 104.168 484.182 102.824V6.19999ZM513.846 43.352C509.046 43.352 505.158 44.696 502.182 47.384C499.206 50.072 497.046 53.864 495.702 58.76V95.048C497.526 96.104 499.734 96.92 502.326 97.496C504.918 97.976 507.606 98.216 510.39 98.216C516.918 98.216 522.102 95.912 525.942 91.304C529.878 86.696 531.846 79.496 531.846 69.704C531.846 65.96 531.51 62.456 530.838 59.192C530.166 55.928 529.11 53.144 527.67 50.84C526.23 48.536 524.358 46.712 522.054 45.368C519.846 44.024 517.11 43.352 513.846 43.352Z" stroke="white" stroke-width="10" mask="url(#path-1-outside-1_3_2)"/>
<path d="M574.763 89.288C574.763 92.648 575.339 95.048 576.491 96.488C577.643 97.928 579.275 98.648 581.387 98.648C582.635 98.648 583.979 98.552 585.419 98.36C586.859 98.168 588.491 97.736 590.315 97.064L591.611 106.136C590.075 106.904 587.915 107.528 585.131 108.008C582.443 108.488 580.091 108.728 578.075 108.728C573.755 108.728 570.203 107.528 567.419 105.128C564.635 102.632 563.243 98.456 563.243 92.6V6.19999H574.763V89.288Z" stroke="white" stroke-width="10" mask="url(#path-1-outside-1_3_2)"/>
<path d="M656.554 101.24C653.674 103.544 650.026 105.368 645.61 106.712C641.29 108.056 636.682 108.728 631.786 108.728C626.314 108.728 621.562 107.864 617.53 106.136C613.498 104.312 610.186 101.768 607.594 98.504C605.002 95.144 603.082 91.16 601.834 86.552C600.586 81.944 599.962 76.76 599.962 71C599.962 58.712 602.698 49.352 608.17 42.92C613.642 36.488 621.466 33.272 631.642 33.272C634.906 33.272 638.17 33.656 641.434 34.424C644.698 35.096 647.626 36.44 650.218 38.456C652.81 40.472 654.922 43.352 656.554 47.096C658.186 50.744 659.002 55.592 659.002 61.64C659.002 64.808 658.714 68.312 658.138 72.152H611.914C611.914 76.376 612.346 80.12 613.21 83.384C614.074 86.648 615.418 89.432 617.242 91.736C619.066 93.944 621.418 95.672 624.298 96.92C627.274 98.072 630.874 98.648 635.098 98.648C638.362 98.648 641.626 98.072 644.89 96.92C648.154 95.768 650.602 94.424 652.234 92.888L656.554 101.24ZM631.786 43.352C626.122 43.352 621.562 44.84 618.106 47.816C614.746 50.792 612.73 55.88 612.058 63.08H647.77C647.77 55.784 646.378 50.696 643.594 47.816C640.81 44.84 636.874 43.352 631.786 43.352Z" stroke="white" stroke-width="10" mask="url(#path-1-outside-1_3_2)"/>
</svg>
